<svg width="334" height="102" viewBox="0 0 334 102" fill="none" xmlns="http://www.w3.org/2000/svg">
<g clip-path="url(#clip0_3_120)">
<rect width="334" height="102" fill="white"/>
<rect x="4.5" y="4.5" width="146" height="93" stroke="black" stroke-width="9"/>
<rect x="155" width="180" height="102" fill="black"/>
<path d="M37.9496 64.522C36.9136 65.754 35.7656 66.552 34.5056 66.916C33.2456 67.28 31.9016 67.336 30.4736 67.084C29.0456 66.86 27.5756 66.468 26.0636 65.908L27.8696 61.078C28.7096 61.442 29.5636 61.694 30.4316 61.834C31.2996 61.946 32.0416 61.946 32.6576 61.834C33.7216 61.694 34.4496 61.036 34.8416 59.86C35.2616 58.684 35.5976 57.144 35.8496 55.24L37.9916 37.6H42.9056L40.7216 55.492C40.4696 57.508 40.1336 59.258 39.7136 60.742C39.3216 62.198 38.7336 63.458 37.9496 64.522ZM74.38 58.558H59.68C59.624 59.818 59.974 60.77 60.73 61.414C61.486 62.058 62.466 62.422 63.67 62.506C64.902 62.562 66.19 62.366 67.534 61.918C68.878 61.47 70.11 60.798 71.23 59.902L73.708 63.892C72.028 65.18 70.362 66.09 68.71 66.622C67.086 67.126 65.532 67.378 64.048 67.378C60.436 67.378 57.846 66.356 56.278 64.312C54.71 62.268 54.15 59.398 54.598 55.702C54.85 53.658 55.466 51.894 56.446 50.41C57.454 48.926 58.742 47.778 60.31 46.966C61.906 46.126 63.726 45.72 65.77 45.748C68.094 45.776 69.97 46.266 71.398 47.218C72.854 48.17 73.82 49.528 74.296 51.292C74.632 52.244 74.8 53.322 74.8 54.526C74.8 55.73 74.66 57.074 74.38 58.558ZM66.106 50.452C64.93 50.452 63.908 50.676 63.04 51.124C62.172 51.572 61.486 52.146 60.982 52.846C60.506 53.546 60.212 54.274 60.1 55.03H70.516C70.628 54.274 70.53 53.546 70.222 52.846C69.942 52.146 69.452 51.572 68.752 51.124C68.08 50.676 67.198 50.452 66.106 50.452ZM103.086 42.346C101.294 42.346 100.006 42.598 99.2221 43.102C98.4381 43.606 97.9341 44.642 97.7101 46.21L100.818 46.084L100.314 50.494H97.2061L95.1481 67.084H90.1921L92.2501 50.494H89.1841L89.6881 46.084L92.8381 45.958C93.1741 43.13 94.1821 40.96 95.8621 39.448C97.5701 37.908 100.104 37.222 103.464 37.39L103.086 42.346ZM128.998 42.346C127.206 42.346 125.918 42.598 125.134 43.102C124.35 43.606 123.846 44.642 123.622 46.21L126.73 46.084L126.226 50.494H123.118L121.06 67.084H116.104L118.162 50.494H115.096L115.6 46.084L118.75 45.958C119.086 43.13 120.094 40.96 121.774 39.448C123.482 37.908 126.016 37.222 129.376 37.39L128.998 42.346Z" fill="black"/>
<path d="M179.349 67H165.531L169.143 37.6H174.183L171.201 62.044H179.979L179.349 67ZM199.999 43.522C199.131 43.522 198.403 43.228 197.815 42.64C197.227 42.052 196.933 41.324 196.933 40.456C196.933 39.616 197.227 38.902 197.815 38.314C198.403 37.726 199.131 37.432 199.999 37.432C200.839 37.432 201.553 37.726 202.141 38.314C202.729 38.902 203.023 39.616 203.023 40.456C203.023 41.324 202.729 42.052 202.141 42.64C201.553 43.228 200.839 43.522 199.999 43.522ZM199.285 67H194.665L197.269 46H201.889L199.285 67ZM236.543 46L226.463 67H221.129L216.131 46H221.339L224.363 61.372L231.251 46H236.543ZM266.346 58.558H251.646C251.59 59.818 251.94 60.77 252.696 61.414C253.452 62.058 254.432 62.422 255.636 62.506C256.868 62.562 258.156 62.366 259.5 61.918C260.844 61.47 262.076 60.798 263.196 59.902L265.674 63.892C263.994 65.18 262.328 66.09 260.676 66.622C259.052 67.126 257.498 67.378 256.014 67.378C252.402 67.378 249.812 66.356 248.244 64.312C246.676 62.268 246.116 59.398 246.564 55.702C246.816 53.658 247.432 51.894 248.412 50.41C249.42 48.926 250.708 47.778 252.276 46.966C253.872 46.126 255.692 45.72 257.736 45.748C260.06 45.776 261.936 46.266 263.364 47.218C264.82 48.17 265.786 49.528 266.262 51.292C266.598 52.244 266.766 53.322 266.766 54.526C266.766 55.73 266.626 57.074 266.346 58.558ZM258.072 50.452C256.896 50.452 255.874 50.676 255.006 51.124C254.138 51.572 253.452 52.146 252.948 52.846C252.472 53.546 252.178 54.274 252.066 55.03H262.482C262.594 54.274 262.496 53.546 262.188 52.846C261.908 52.146 261.418 51.572 260.718 51.124C260.046 50.676 259.164 50.452 258.072 50.452ZM279.47 67L282.074 46H287.072L286.82 47.47C288.052 46.35 289.424 45.832 290.936 45.916C292.448 45.972 294.1 46.294 295.892 46.882L293.078 51.124C292.042 50.76 290.992 50.662 289.928 50.83C288.892 50.998 288.01 51.334 287.282 51.838C286.554 52.342 286.162 52.93 286.106 53.602L284.468 67H279.47ZM304.636 64.06L307.828 61.078C308.5 61.722 309.172 62.198 309.844 62.506C310.544 62.786 311.272 62.926 312.028 62.926C313.092 62.926 313.918 62.632 314.506 62.044C315.122 61.456 315.43 60.728 315.43 59.86C315.374 59.384 315.066 59.02 314.506 58.768C313.974 58.488 313.316 58.236 312.532 58.012C311.748 57.76 310.95 57.452 310.138 57.088C309.354 56.724 308.668 56.22 308.08 55.576C307.1 54.568 306.582 53.504 306.526 52.384C306.498 51.236 306.82 50.172 307.492 49.192C308.192 48.184 309.144 47.372 310.348 46.756C311.58 46.112 312.966 45.79 314.506 45.79C316.046 45.79 317.376 46.07 318.496 46.63C319.644 47.162 320.526 47.834 321.142 48.646L317.74 51.334C317.348 50.914 316.844 50.62 316.228 50.452C315.612 50.256 315.024 50.158 314.464 50.158C313.764 50.158 313.134 50.312 312.574 50.62C312.014 50.928 311.692 51.446 311.608 52.174C311.552 52.65 311.692 53.028 312.028 53.308C312.364 53.588 312.826 53.84 313.414 54.064C314.03 54.26 314.674 54.484 315.346 54.736C316.018 54.96 316.662 55.268 317.278 55.66C318.146 56.052 318.832 56.682 319.336 57.55C319.868 58.39 320.05 59.51 319.882 60.91C319.714 62.31 319.224 63.486 318.412 64.438C317.628 65.39 316.648 66.118 315.472 66.622C314.324 67.098 313.078 67.322 311.734 67.294C310.418 67.266 309.13 66.986 307.87 66.454C306.638 65.922 305.56 65.124 304.636 64.06Z" fill="white"/>
</g>
<defs>
<clipPath id="clip0_3_120">
<rect width="334" height="102" fill="white"/>
</clipPath>
</defs>
</svg>
